v 0.500000 0.500000 -0.500000
v 0.500000 -0.500000 -0.500000
v 0.500000 0.500000 0.500000
v 0.500000 -0.500000 0.500000
v -0.500000 0.500000 -0.500000
v -0.500000 -0.500000 -0.500000
v -0.500000 0.500000 0.500000
v -0.500000 -0.500000 0.500000
vt 0.000100 0.774065
vt 0.585477 0.585477
vt 0.517719 0.999900
vt 0.774065 0.000100
vt 0.999900 0.517719
vt 0.625000 0.500000
vt 0.375000 0.750000
vt 0.375000 0.500000
vt 0.625000 0.750000
vt 0.375000 1.000000
vt 0.999900 0.999900
vt 0.875000 0.500000
vt 0.625000 0.500000
vt 0.288545 0.288545
vt 0.625000 0.750000
vt 0.625000 1.000000
vt 0.875000 0.750000
vn 0.0000 1.0000 0.0000
vn 0.0000 0.0000 1.0000
vn -1.0000 0.0000 0.0000
vn 0.0000 -1.0000 0.0000
vn 1.0000 0.0000 0.0000
vn 0.0000 0.0000 -1.0000
f 5/1/1 3/2/1 1/3/1
f 3/2/2 8/4/2 4/5/2
f 7/6/3 6/7/3 8/8/3
f 2/9/4 8/10/4 6/7/4
f 1/3/5 4/5/5 2/11/5
f 5/12/6 2/9/6 6/13/6
f 5/1/1 7/14/1 3/2/1
f 3/2/2 7/14/2 8/4/2
f 7/6/3 5/15/3 6/7/3
f 2/9/4 4/16/4 8/10/4
f 1/3/5 3/2/5 4/5/5
f 5/12/6 1/17/6 2/9/6
