# CS300 Graphics::Mesh to obj exporter
v -0.500000 -0.500000 0.500000
v 0.500000 -0.500000 0.500000
v 0.500000 0.500000 0.500000
v -0.500000 0.500000 0.500000
v -0.500000 -0.500000 -0.500000
v 0.500000 -0.500000 -0.500000
v 0.500000 0.500000 -0.500000
v -0.500000 0.500000 -0.500000
vt 0.000000 1.000000
vt 0.000000 0.000000
vt 1.000000 0.000000
vt 1.000000 1.000000
vn -0.408248 -0.408248 0.816497
vn 0.666667 -0.666667 0.333333
vn 0.408248 0.408248 0.816497
vn -0.666667 0.666667 0.333333
vn -0.666667 -0.666667 -0.333333
vn 0.408248 -0.408248 -0.816497
vn 0.666667 0.666667 -0.333333
vn -0.408248 0.408248 -0.816497
usemtl (null)
s off
f   1/1/1  2/2/2  3/3/3 
f   1/1/1  3/3/3  4/4/4 
f   2/1/2  6/2/6  7/3/7 
f   2/1/2  7/3/7  3/4/3 
f   6/1/6  5/2/5  8/3/8 
f   6/1/6  8/3/8  7/4/7 
f   5/1/5  1/2/1  4/3/4 
f   5/1/5  4/3/4  8/4/8 
f   4/1/4  3/2/3  7/3/7 
f   4/1/4  7/3/7  8/4/8 
f   5/1/5  6/2/6  2/3/2 
f   5/1/5  2/3/2  1/4/1 
