v 0.000000 -0.500000 -0.000000
v 0.500000 0.000000 0.000000
v 0.000000 -0.000000 0.500000
v -0.500000 0.000000 0.000000
v 0.000000 0.500000 0.000000
v 0.000000 0.000000 -0.500000
vt 0.000000 0.000000
vt 1.000000 0.000000
vt 1.000000 1.000000
vt 0.000000 0.000000
vt 1.000000 0.000000
vt 0.000000 0.000000
vt 1.000000 0.000000
vt 0.000000 0.000000
vt 1.000000 0.000000
vt 1.000000 1.000000
vn 0.5774 -0.5774 0.5774
vn -0.5774 -0.5774 0.5774
vn -0.5774 0.5774 0.5774
vn 0.5774 0.5774 0.5774
vn 0.5774 -0.5774 -0.5774
vn -0.5774 -0.5774 -0.5774
vn -0.5774 0.5774 -0.5774
vn 0.5774 0.5774 -0.5774
f 1/1/1 2/2/1 3/3/1
f 4/4/2 1/5/2 3/3/2
f 5/6/3 4/7/3 3/3/3
f 2/8/4 5/9/4 3/3/4
f 2/8/5 1/5/5 6/10/5
f 1/1/6 4/7/6 6/10/6
f 4/4/7 5/9/7 6/10/7
f 5/6/8 2/2/8 6/10/8
